<svg width="87" height="72" viewBox="0 0 87 72" fill="none" xmlns="http://www.w3.org/2000/svg">
<path d="M42.9393 71.0607C43.5251 71.6464 44.4749 71.6464 45.0607 71.0607L54.6066 61.5147C55.1924 60.9289 55.1924 59.9792 54.6066 59.3934C54.0208 58.8076 53.0711 58.8076 52.4853 59.3934L44 67.8787L35.5147 59.3934C34.9289 58.8076 33.9792 58.8076 33.3934 59.3934C32.8076 59.9792 32.8076 60.9289 33.3934 61.5147L42.9393 71.0607ZM42.5 35V70H45.5V35H42.5Z" fill="white"/>
<path d="M7.19531 11.4805L5.83594 12.6758C5.48438 12.4258 5.17969 12.2383 4.92188 12.1133C4.66406 11.9805 4.35938 11.9141 4.00781 11.9141C3.17969 11.9141 2.76562 12.2188 2.76562 12.8281C2.76562 13.2656 3.28906 13.6914 4.33594 14.1055C5.39062 14.5117 6.14844 14.9609 6.60938 15.4531C7.07031 15.9453 7.30078 16.5391 7.30078 17.2344C7.30078 18.0469 6.96875 18.7578 6.30469 19.3672C5.64062 19.9688 4.85938 20.2695 3.96094 20.2695C2.59375 20.2695 1.47266 19.6367 0.597656 18.3711L2.20312 17.5977C2.76562 18.1445 3.35156 18.418 3.96094 18.418C4.38281 18.418 4.75 18.3047 5.0625 18.0781C5.38281 17.8438 5.54297 17.5742 5.54297 17.2695C5.54297 16.7305 4.98828 16.2461 3.87891 15.8164C2.76953 15.3867 2 14.9531 1.57031 14.5156C1.14844 14.0703 0.9375 13.5234 0.9375 12.875C0.9375 12.0703 1.23828 11.4023 1.83984 10.8711C2.44922 10.332 3.21094 10.0625 4.125 10.0625C5.03906 10.0625 6.0625 10.5352 7.19531 11.4805ZM19.0078 15.5586H10.7578C10.9375 16.5508 11.3438 17.2773 11.9766 17.7383C12.6172 18.1914 13.3125 18.418 14.0625 18.418C15.2188 18.418 16.1875 17.9375 16.9688 16.9766L18.457 18.1016C17.3398 19.5469 15.8438 20.2695 13.9688 20.2695C12.5312 20.2695 11.3281 19.7773 10.3594 18.793C9.39062 17.8086 8.90625 16.5859 8.90625 15.125C8.90625 13.7578 9.39453 12.5742 10.3711 11.5742C11.3555 10.5664 12.5547 10.0625 13.9688 10.0625C15.3594 10.0625 16.5508 10.5742 17.543 11.5977C18.5352 12.6133 19.0234 13.9336 19.0078 15.5586ZM10.9688 13.9297H16.875C16.2188 12.6016 15.25 11.9375 13.9688 11.9375C12.5703 11.9375 11.5703 12.6016 10.9688 13.9297ZM31.0078 15.5586H22.7578C22.9375 16.5508 23.3438 17.2773 23.9766 17.7383C24.6172 18.1914 25.3125 18.418 26.0625 18.418C27.2188 18.418 28.1875 17.9375 28.9688 16.9766L30.457 18.1016C29.3398 19.5469 27.8438 20.2695 25.9688 20.2695C24.5312 20.2695 23.3281 19.7773 22.3594 18.793C21.3906 17.8086 20.9062 16.5859 20.9062 15.125C20.9062 13.7578 21.3945 12.5742 22.3711 11.5742C23.3555 10.5664 24.5547 10.0625 25.9688 10.0625C27.3594 10.0625 28.5508 10.5742 29.543 11.5977C30.5352 12.6133 31.0234 13.9336 31.0078 15.5586ZM22.9688 13.9297H28.875C28.2188 12.6016 27.25 11.9375 25.9688 11.9375C24.5703 11.9375 23.5703 12.6016 22.9688 13.9297ZM39.7969 20V10.332H41.8125V11.8203C42.2891 11.2109 42.7422 10.7656 43.1719 10.4844C43.6094 10.2031 44.1094 10.0625 44.6719 10.0625C45.4062 10.0625 45.9805 10.2227 46.3945 10.543C46.8164 10.8633 47.1719 11.375 47.4609 12.0781C47.9688 11.375 48.457 10.8633 48.9258 10.543C49.4023 10.2227 49.9531 10.0625 50.5781 10.0625C51.3438 10.0625 52.0039 10.3516 52.5586 10.9297C53.1133 11.5 53.3906 12.1797 53.3906 12.9688V20H51.3633V13.4961C51.3633 12.4258 50.8359 11.8906 49.7812 11.8906C49.1797 11.8906 48.668 12.1641 48.2461 12.7109C47.832 13.2578 47.625 13.9336 47.625 14.7383V20H45.5859V13.7656C45.5859 12.5 45.0664 11.8672 44.0273 11.8672C43.4102 11.8672 42.8867 12.125 42.457 12.6406C42.0273 13.1562 41.8125 13.793 41.8125 14.5508V20H39.7969ZM55.4531 15.125C55.4531 13.8047 55.9727 12.6328 57.0117 11.6094C58.0586 10.5781 59.2578 10.0625 60.6094 10.0625C62 10.0625 63.2148 10.5703 64.2539 11.5859C65.293 12.5938 65.8125 13.7734 65.8125 15.125C65.8125 16.4844 65.3008 17.6836 64.2773 18.7227C63.2617 19.7539 62.0859 20.2695 60.75 20.2695C59.3203 20.2695 58.0781 19.7578 57.0234 18.7344C55.9766 17.7109 55.4531 16.5078 55.4531 15.125ZM63.8438 15.125C63.8438 14.3047 63.5312 13.5938 62.9062 12.9922C62.2812 12.3828 61.5391 12.0781 60.6797 12.0781C59.7969 12.0781 59.0352 12.3867 58.3945 13.0039C57.7617 13.6133 57.4453 14.3438 57.4453 15.1953C57.4453 16.0078 57.7656 16.7188 58.4062 17.3281C59.0547 17.9375 59.8125 18.2422 60.6797 18.2422C61.5234 18.2422 62.2617 17.9297 62.8945 17.3047C63.5273 16.6797 63.8438 15.9531 63.8438 15.125ZM70.2539 10.332V12.3242C70.707 11.5273 71.1484 10.9531 71.5781 10.6016C72.0156 10.2422 72.582 10.0625 73.2773 10.0625C73.4727 10.0625 73.7539 10.1094 74.1211 10.2031L73.5 12.2422C73.1094 12.1641 72.8516 12.125 72.7266 12.125C72.0391 12.125 71.4609 12.3672 70.9922 12.8516C70.5312 13.3281 70.3008 13.9258 70.3008 14.6445V20H68.2617V10.332H70.2539ZM85.6406 15.5586H77.3906C77.5703 16.5508 77.9766 17.2773 78.6094 17.7383C79.25 18.1914 79.9453 18.418 80.6953 18.418C81.8516 18.418 82.8203 17.9375 83.6016 16.9766L85.0898 18.1016C83.9727 19.5469 82.4766 20.2695 80.6016 20.2695C79.1641 20.2695 77.9609 19.7773 76.9922 18.793C76.0234 17.8086 75.5391 16.5859 75.5391 15.125C75.5391 13.7578 76.0273 12.5742 77.0039 11.5742C77.9883 10.5664 79.1875 10.0625 80.6016 10.0625C81.9922 10.0625 83.1836 10.5742 84.1758 11.5977C85.168 12.6133 85.6562 13.9336 85.6406 15.5586ZM77.6016 13.9297H83.5078C82.8516 12.6016 81.8828 11.9375 80.6016 11.9375C79.2031 11.9375 78.2031 12.6016 77.6016 13.9297Z" fill="white"/>
</svg>
