<svg width="373" height="130" viewBox="0 0 373 130" fill="none" xmlns="http://www.w3.org/2000/svg">
<g filter="url(#filter0_d)">
<path d="M49.4526 105.448H58.0708V107.572H51.5522V111.454H58.0708V113.554H51.5767V121H49.4526V105.448ZM72.377 104.85L79.7256 121H77.5039L75.6851 117.021H69.0811L67.311 121H65.1016L72.377 104.85ZM72.377 109.721L69.8745 115.25H74.8794L72.377 109.721ZM97.938 107.169L96.2168 108.549C95.7611 108.077 95.346 107.727 94.9717 107.499C94.6055 107.263 94.0724 107.145 93.3726 107.145C92.6076 107.145 91.985 107.32 91.5049 107.67C91.0329 108.012 90.7969 108.455 90.7969 109C90.7969 109.472 91.0044 109.892 91.4194 110.258C91.8345 110.616 92.5425 111.011 93.5435 111.442C94.5444 111.865 95.3216 112.264 95.875 112.638C96.4365 113.004 96.8963 113.411 97.2544 113.859C97.6125 114.306 97.877 114.778 98.0479 115.275C98.2269 115.771 98.3164 116.296 98.3164 116.85C98.3164 118.144 97.8444 119.246 96.9004 120.158C95.9645 121.069 94.8293 121.525 93.4946 121.525C92.1925 121.525 91.041 121.171 90.04 120.463C89.0472 119.747 88.2822 118.677 87.7451 117.252L89.8691 116.654C90.6423 118.404 91.8263 119.279 93.4214 119.279C94.1945 119.279 94.8374 119.047 95.3501 118.583C95.8628 118.119 96.1191 117.533 96.1191 116.825C96.1191 116.402 95.9849 115.979 95.7163 115.556C95.4478 115.124 95.1141 114.77 94.7153 114.494C94.3166 114.217 93.6777 113.904 92.7988 113.554C91.9281 113.196 91.2567 112.87 90.7847 112.577C90.3208 112.276 89.918 111.922 89.5762 111.515C89.2344 111.1 88.9821 110.689 88.8193 110.282C88.6647 109.875 88.5874 109.44 88.5874 108.976C88.5874 107.861 89.035 106.913 89.9302 106.132C90.8254 105.342 91.9118 104.948 93.1895 104.948C94.0358 104.948 94.8944 105.131 95.7651 105.497C96.6359 105.863 97.3602 106.421 97.938 107.169ZM107.764 105.448H109.888V111.43H117.322V105.448H119.422V121H117.322V113.529H109.888V121H107.764V105.448ZM129.529 105.448H131.628V121H129.529V105.448ZM141.149 113.126C141.149 110.88 141.996 108.956 143.688 107.353C145.381 105.749 147.416 104.948 149.792 104.948C152.111 104.948 154.109 105.757 155.786 107.377C157.462 108.988 158.3 110.905 158.3 113.126C158.3 115.478 157.47 117.468 155.81 119.096C154.158 120.715 152.128 121.525 149.719 121.525C147.342 121.525 145.32 120.707 143.652 119.071C141.984 117.436 141.149 115.454 141.149 113.126ZM156.042 113.224C156.042 111.507 155.424 110.062 154.187 108.891C152.95 107.711 151.428 107.121 149.621 107.121C147.904 107.121 146.431 107.719 145.202 108.915C143.981 110.111 143.371 111.548 143.371 113.224C143.371 114.925 143.998 116.365 145.251 117.545C146.512 118.717 148.055 119.303 149.877 119.303C151.554 119.303 152.998 118.705 154.211 117.509C155.432 116.304 156.042 114.876 156.042 113.224ZM167.711 104.826L179.21 116.654V105.448H181.334V121.72L169.835 109.953V121H167.711V104.826ZM211.399 112.577L214.646 116.02L216.392 114.103L217.894 115.446L216.038 117.521L219.322 120.976H216.539L214.695 119.022C212.946 120.707 211.237 121.549 209.568 121.549C208.136 121.549 206.899 121.106 205.857 120.219C204.816 119.324 204.295 118.266 204.295 117.045C204.295 116.133 204.527 115.385 204.991 114.799C205.455 114.205 206.521 113.338 208.189 112.199C208.034 111.971 207.904 111.788 207.798 111.649C207.082 110.738 206.655 110.071 206.517 109.647C206.386 109.216 206.321 108.834 206.321 108.5C206.321 107.597 206.683 106.771 207.408 106.022C208.132 105.273 209.1 104.899 210.313 104.899C211.371 104.899 212.27 105.257 213.011 105.973C213.751 106.689 214.122 107.556 214.122 108.573C214.122 110.038 213.214 111.373 211.399 112.577ZM209.971 111.1C210.687 110.612 211.224 110.176 211.583 109.794C211.941 109.411 212.12 109.005 212.12 108.573C212.12 108.077 211.949 107.678 211.607 107.377C211.273 107.076 210.818 106.925 210.24 106.925C209.703 106.925 209.259 107.072 208.909 107.365C208.567 107.658 208.396 108.028 208.396 108.476C208.396 109.127 208.921 110.001 209.971 111.1ZM213.292 117.521L209.642 113.651C208.258 114.547 207.383 115.218 207.017 115.666C206.651 116.113 206.468 116.565 206.468 117.021C206.468 117.704 206.769 118.294 207.371 118.791C207.981 119.279 208.714 119.523 209.568 119.523C210.211 119.523 210.809 119.364 211.363 119.047C211.924 118.721 212.567 118.213 213.292 117.521ZM251.499 107.169L249.777 108.549C249.322 108.077 248.907 107.727 248.532 107.499C248.166 107.263 247.633 107.145 246.933 107.145C246.168 107.145 245.546 107.32 245.065 107.67C244.593 108.012 244.357 108.455 244.357 109C244.357 109.472 244.565 109.892 244.98 110.258C245.395 110.616 246.103 111.011 247.104 111.442C248.105 111.865 248.882 112.264 249.436 112.638C249.997 113.004 250.457 113.411 250.815 113.859C251.173 114.306 251.438 114.778 251.608 115.275C251.787 115.771 251.877 116.296 251.877 116.85C251.877 118.144 251.405 119.246 250.461 120.158C249.525 121.069 248.39 121.525 247.055 121.525C245.753 121.525 244.602 121.171 243.601 120.463C242.608 119.747 241.843 118.677 241.306 117.252L243.43 116.654C244.203 118.404 245.387 119.279 246.982 119.279C247.755 119.279 248.398 119.047 248.911 118.583C249.423 118.119 249.68 117.533 249.68 116.825C249.68 116.402 249.545 115.979 249.277 115.556C249.008 115.124 248.675 114.77 248.276 114.494C247.877 114.217 247.238 113.904 246.359 113.554C245.489 113.196 244.817 112.87 244.345 112.577C243.881 112.276 243.479 111.922 243.137 111.515C242.795 111.1 242.543 110.689 242.38 110.282C242.225 109.875 242.148 109.44 242.148 108.976C242.148 107.861 242.596 106.913 243.491 106.132C244.386 105.342 245.472 104.948 246.75 104.948C247.596 104.948 248.455 105.131 249.326 105.497C250.196 105.863 250.921 106.421 251.499 107.169ZM260.299 105.448H269.809V107.572H266.098V121H263.998V107.572H260.299V105.448ZM278.036 105.448H280.392L284.212 111.698L287.984 105.448H290.34L285.238 113.871V121H283.114V113.896L278.036 105.448ZM299.812 105.448H301.912V118.9H306.978V121H299.812V105.448ZM315.706 105.448H324.324V107.572H317.805V111.454H324.324V113.554H317.805V118.9H324.324V121H315.706V105.448Z" fill="white"/>
</g>
<line x1="5" y1="91.5" x2="138" y2="91.5" stroke="url(#paint0_linear)"/>
<line x1="371" y1="91.5" x2="238" y2="91.5" stroke="url(#paint1_linear)"/>
<line x1="238" y1="91.5" x2="138" y2="91.5" stroke="white"/>
<g filter="url(#filter1_d)">
<path d="M45.2 44.56C45.2 52.2933 43.7067 57.92 40.72 61.44C37.7867 64.96 33.52 66.72 27.92 66.72C21.5733 66.72 16.2133 64.8 11.84 60.96C6.61333 56.3733 4 49.7867 4 41.2C4 32.8267 6.64 25.9733 11.92 20.64C16.4533 16.0533 21.3067 13.76 26.48 13.76C28.9867 13.76 31.1733 14.2133 33.04 15.12C35.44 16.2933 37.6267 18.2133 39.6 20.88L43.68 13.36H44V36.56L43.28 36.16C43.28 29.28 41.3867 23.76 37.6 19.6C34.4533 16.1333 31.1467 14.4 27.68 14.4C23.04 14.4 19.7067 16.56 17.68 20.88C15.6533 25.1467 14.64 31.6 14.64 40.24C14.64 48.72 15.7333 55.1467 17.92 59.52C20.1067 63.84 23.44 66 27.92 66C32.9867 66 36.88 64.5067 39.6 61.52C42.8533 58 44.48 52.3467 44.48 44.56H45.2ZM89.59 64.96C96.0433 64.96 100.977 63.0133 104.39 59.12C107.803 55.1733 109.51 49.2267 109.51 41.28H110.47V66H58.15V65.12C60.4967 65.12 62.4967 65.04 64.15 64.88C65.8033 64.72 66.9233 64.5333 67.51 64.32C68.15 64.0533 68.55 63.76 68.71 63.44C68.9233 63.0667 69.03 62.1333 69.03 60.64V19.68C69.03 18.1333 68.9233 17.1733 68.71 16.8C68.6033 16.5867 68.23 16.3733 67.59 16.16C67.0033 15.9467 65.8033 15.7333 63.99 15.52C62.23 15.3067 60.2833 15.2 58.15 15.2V14.4H91.03V15.2C88.0433 15.2 85.6967 15.28 83.99 15.44C82.3367 15.6 81.1633 15.8133 80.47 16.08C79.7767 16.3467 79.3767 16.5867 79.27 16.8C79.0033 17.28 78.87 18.24 78.87 19.68V60.56C78.87 62.1067 78.9767 63.0933 79.19 63.52C79.2967 63.7333 79.6167 63.9467 80.15 64.16C81.9633 64.6933 85.11 64.96 89.59 64.96ZM171.889 40.16C171.889 48 169.249 54.5067 163.969 59.68C159.169 64.3733 153.755 66.72 147.729 66.72C141.595 66.72 136.182 64.48 131.489 60C126.209 54.9333 123.569 48.32 123.569 40.16C123.569 32.32 126.209 25.84 131.489 20.72C136.289 16.08 141.702 13.76 147.729 13.76C153.862 13.76 159.275 15.9733 163.969 20.4C169.249 25.4133 171.889 32 171.889 40.16ZM161.329 40.16C161.329 31.7333 160.182 25.3333 157.889 20.96C155.649 16.5867 152.262 14.4 147.729 14.4C143.249 14.4 139.862 16.5867 137.569 20.96C135.329 25.3333 134.209 31.7333 134.209 40.16C134.209 48.48 135.329 54.88 137.569 59.36C139.862 63.7867 143.249 66 147.729 66C152.155 66 155.515 63.7867 157.809 59.36C160.155 54.88 161.329 48.48 161.329 40.16ZM232.032 14.4V37.2H230.912C229.685 28.5067 227.739 22.5333 225.072 19.28C222.885 16.56 219.659 15.2 215.392 15.2C214.325 15.2 213.739 15.2533 213.632 15.36C213.419 15.52 213.312 16.2133 213.312 17.44V60.64C213.312 62.1867 213.419 63.1733 213.632 63.6C213.739 63.8133 214.112 64.0533 214.752 64.32C215.392 64.5333 216.619 64.72 218.432 64.88C220.245 65.04 222.699 65.12 225.792 65.12V66H190.992V65.12C194.032 65.12 196.459 65.04 198.272 64.88C200.085 64.72 201.312 64.5333 201.952 64.32C202.592 64.0533 202.992 63.76 203.152 63.44C203.365 63.0667 203.472 62.1333 203.472 60.64V17.52C203.472 16.1333 203.312 15.3867 202.992 15.28C202.832 15.2267 202.272 15.2 201.312 15.2C197.152 15.2 193.979 16.5333 191.792 19.2C189.125 22.5067 187.125 28.4533 185.792 37.04H184.672V14.4H232.032ZM287.82 60.64V40H265.02V60.64C265.02 62.1867 265.127 63.1733 265.34 63.6C265.447 63.8133 265.793 64.0533 266.38 64.32C267.02 64.5333 268.167 64.72 269.82 64.88C271.473 65.04 273.42 65.12 275.66 65.12V66H244.3V65.12C246.593 65.12 248.567 65.04 250.22 64.88C251.927 64.72 253.073 64.5333 253.66 64.32C254.3 64.0533 254.7 63.76 254.86 63.44C255.073 63.0667 255.18 62.1333 255.18 60.64V19.68C255.18 18.1333 255.073 17.1733 254.86 16.8C254.753 16.5867 254.38 16.3733 253.74 16.16C253.153 15.9467 251.953 15.7333 250.14 15.52C248.38 15.3067 246.433 15.2 244.3 15.2V14.4H275.74V15.2C271.207 15.2 268.087 15.52 266.38 16.16C265.847 16.3733 265.527 16.5867 265.42 16.8C265.153 17.28 265.02 18.24 265.02 19.68V38.64H287.82V19.68C287.82 18.1867 287.687 17.2267 287.42 16.8C287.313 16.5867 286.967 16.3733 286.38 16.16C285.793 15.9467 284.593 15.7333 282.78 15.52C280.967 15.3067 279.047 15.2 277.02 15.2V14.4H308.46V15.2C306.06 15.2 304.087 15.28 302.54 15.44C300.993 15.6 299.793 15.84 298.94 16.16L298.22 16.48C297.847 16.8533 297.66 17.92 297.66 19.68V60.64C297.66 62.1867 297.767 63.1733 297.98 63.6C298.087 63.8133 298.407 64.0267 298.94 64.24C300.487 64.8267 303.66 65.12 308.46 65.12V66H277.1V65.12C281.793 65.12 284.913 64.8267 286.46 64.24C287.047 64.0267 287.393 63.8133 287.5 63.6C287.713 63.2267 287.82 62.24 287.82 60.64ZM368.898 40.16C368.898 48 366.258 54.5067 360.978 59.68C356.178 64.3733 350.765 66.72 344.738 66.72C338.605 66.72 333.191 64.48 328.498 60C323.218 54.9333 320.578 48.32 320.578 40.16C320.578 32.32 323.218 25.84 328.498 20.72C333.298 16.08 338.711 13.76 344.738 13.76C350.871 13.76 356.285 15.9733 360.978 20.4C366.258 25.4133 368.898 32 368.898 40.16ZM358.338 40.16C358.338 31.7333 357.191 25.3333 354.898 20.96C352.658 16.5867 349.271 14.4 344.738 14.4C340.258 14.4 336.871 16.5867 334.578 20.96C332.338 25.3333 331.218 31.7333 331.218 40.16C331.218 48.48 332.338 54.88 334.578 59.36C336.871 63.7867 340.258 66 344.738 66C349.165 66 352.525 63.7867 354.818 59.36C357.165 54.88 358.338 48.48 358.338 40.16Z" fill="white"/>
</g>
<defs>
<filter id="filter0_d" x="45.4526" y="104.826" width="282.871" height="24.8945" filterUnits="userSpaceOnUse" color-interpolation-filters="sRGB">
<feFlood flood-opacity="0" result="BackgroundImageFix"/>
<feColorMatrix in="SourceAlpha" type="matrix" values="0 0 0 0 0 0 0 0 0 0 0 0 0 0 0 0 0 0 127 0" result="hardAlpha"/>
<feOffset dy="4"/>
<feGaussianBlur stdDeviation="2"/>
<feColorMatrix type="matrix" values="0 0 0 0 0 0 0 0 0 0 0 0 0 0 0 0 0 0 0.25 0"/>
<feBlend mode="normal" in2="BackgroundImageFix" result="effect1_dropShadow"/>
<feBlend mode="normal" in="SourceGraphic" in2="effect1_dropShadow" result="shape"/>
</filter>
<filter id="filter1_d" x="0" y="13.3599" width="372.898" height="61.36" filterUnits="userSpaceOnUse" color-interpolation-filters="sRGB">
<feFlood flood-opacity="0" result="BackgroundImageFix"/>
<feColorMatrix in="SourceAlpha" type="matrix" values="0 0 0 0 0 0 0 0 0 0 0 0 0 0 0 0 0 0 127 0" result="hardAlpha"/>
<feOffset dy="4"/>
<feGaussianBlur stdDeviation="2"/>
<feColorMatrix type="matrix" values="0 0 0 0 0 0 0 0 0 0 0 0 0 0 0 0 0 0 0.25 0"/>
<feBlend mode="normal" in2="BackgroundImageFix" result="effect1_dropShadow"/>
<feBlend mode="normal" in="SourceGraphic" in2="effect1_dropShadow" result="shape"/>
</filter>
<linearGradient id="paint0_linear" x1="131.5" y1="91.9996" x2="43.74" y2="33.6917" gradientUnits="userSpaceOnUse">
<stop stop-color="white"/>
<stop offset="1" stop-color="white" stop-opacity="0.02"/>
</linearGradient>
<linearGradient id="paint1_linear" x1="244.5" y1="91.0004" x2="332.26" y2="149.308" gradientUnits="userSpaceOnUse">
<stop stop-color="white"/>
<stop offset="1" stop-color="white" stop-opacity="0.02"/>
</linearGradient>
</defs>
</svg>
