<svg width="137" height="77" viewBox="0 0 137 77" fill="none" xmlns="http://www.w3.org/2000/svg">
<line x1="73.2339" y1="36.4419" x2="5.23395" y2="72.4419" stroke="white"/>
<circle cx="3.5" cy="73.5" r="3.5" fill="white"/>
<rect x="73.5" y="21.5" width="63" height="25" stroke="white"/>
<path d="M85.1797 27.5156H85.8828V28.7109C87.1328 28.8984 88.0339 29.3854 88.5859 30.1719L87.4766 31.0469C87.0651 30.4948 86.5339 30.1953 85.8828 30.1484V32.9062C87.1016 33.4219 87.8984 33.987 88.2734 34.6016C88.6536 35.2161 88.8438 35.7969 88.8438 36.3438C88.8438 37.0938 88.5833 37.7552 88.0625 38.3281C87.5469 38.8958 86.8203 39.2214 85.8828 39.3047V40.8203H85.1797V39.3047C84.362 39.1589 83.7161 38.8672 83.2422 38.4297C82.7734 37.987 82.3724 37.3724 82.0391 36.5859L83.4453 36.2188C83.6797 36.7292 83.9219 37.099 84.1719 37.3281C84.4219 37.5573 84.7578 37.7135 85.1797 37.7969V34.1719C83.4922 33.5208 82.6484 32.5495 82.6484 31.2578C82.6484 30.6432 82.8724 30.1016 83.3203 29.6328C83.7734 29.1589 84.3932 28.8516 85.1797 28.7109V27.5156ZM85.1797 32.5859V30.1875C84.8203 30.2604 84.5417 30.3958 84.3438 30.5938C84.151 30.7865 84.0547 31.013 84.0547 31.2734C84.0547 31.8307 84.4297 32.2682 85.1797 32.5859ZM85.8828 34.4844V37.8672C86.3672 37.8047 86.7396 37.638 87 37.3672C87.2656 37.0911 87.3984 36.7448 87.3984 36.3281C87.3984 35.5625 86.8932 34.9479 85.8828 34.4844ZM90.2422 29.0156H98.4531L91.4453 39.4766L90.4062 38.7891L96.0391 30.3281H90.2422V29.0156ZM102.5 39.5156L101.438 38.7734L103.633 35.5938C103.326 35.6354 103.091 35.6562 102.93 35.6562C101.945 35.6562 101.12 35.3255 100.453 34.6641C99.7865 33.9974 99.4531 33.1771 99.4531 32.2031C99.4531 31.2604 99.8151 30.4375 100.539 29.7344C101.268 29.0312 102.117 28.6797 103.086 28.6797C104.044 28.6797 104.883 29.0391 105.602 29.7578C106.326 30.4714 106.688 31.3021 106.688 32.25C106.688 33.0156 106.443 33.7552 105.953 34.4688L102.5 39.5156ZM105.281 32.3438C105.281 31.7292 105.065 31.2031 104.633 30.7656C104.201 30.3229 103.685 30.1016 103.086 30.1016C102.451 30.1016 101.919 30.3203 101.492 30.7578C101.065 31.1901 100.852 31.7292 100.852 32.375C100.852 32.9688 101.078 33.4792 101.531 33.9062C101.984 34.3281 102.531 34.5391 103.172 34.5391C103.76 34.5391 104.258 34.3281 104.664 33.9062C105.076 33.4792 105.281 32.9583 105.281 32.3438ZM108.156 38.0859C108.156 37.7995 108.258 37.5521 108.461 37.3438C108.669 37.1354 108.919 37.0312 109.211 37.0312C109.497 37.0312 109.745 37.1354 109.953 37.3438C110.161 37.5521 110.266 37.7995 110.266 38.0859C110.266 38.3776 110.161 38.6276 109.953 38.8359C109.75 39.0391 109.503 39.1406 109.211 39.1406C108.919 39.1406 108.669 39.0391 108.461 38.8359C108.258 38.6328 108.156 38.3828 108.156 38.0859ZM114.844 39.5156L113.781 38.7734L115.977 35.5938C115.669 35.6354 115.435 35.6562 115.273 35.6562C114.289 35.6562 113.464 35.3255 112.797 34.6641C112.13 33.9974 111.797 33.1771 111.797 32.2031C111.797 31.2604 112.159 30.4375 112.883 29.7344C113.612 29.0312 114.461 28.6797 115.43 28.6797C116.388 28.6797 117.227 29.0391 117.945 29.7578C118.669 30.4714 119.031 31.3021 119.031 32.25C119.031 33.0156 118.786 33.7552 118.297 34.4688L114.844 39.5156ZM117.625 32.3438C117.625 31.7292 117.409 31.2031 116.977 30.7656C116.544 30.3229 116.029 30.1016 115.43 30.1016C114.794 30.1016 114.263 30.3203 113.836 30.7578C113.409 31.1901 113.195 31.7292 113.195 32.375C113.195 32.9688 113.422 33.4792 113.875 33.9062C114.328 34.3281 114.875 34.5391 115.516 34.5391C116.104 34.5391 116.602 34.3281 117.008 33.9062C117.419 33.4792 117.625 32.9583 117.625 32.3438ZM123.672 39.5156L122.609 38.7734L124.805 35.5938C124.497 35.6354 124.263 35.6562 124.102 35.6562C123.117 35.6562 122.292 35.3255 121.625 34.6641C120.958 33.9974 120.625 33.1771 120.625 32.2031C120.625 31.2604 120.987 30.4375 121.711 29.7344C122.44 29.0312 123.289 28.6797 124.258 28.6797C125.216 28.6797 126.055 29.0391 126.773 29.7578C127.497 30.4714 127.859 31.3021 127.859 32.25C127.859 33.0156 127.615 33.7552 127.125 34.4688L123.672 39.5156ZM126.453 32.3438C126.453 31.7292 126.237 31.2031 125.805 30.7656C125.372 30.3229 124.857 30.1016 124.258 30.1016C123.622 30.1016 123.091 30.3203 122.664 30.7578C122.237 31.1901 122.023 31.7292 122.023 32.375C122.023 32.9688 122.25 33.4792 122.703 33.9062C123.156 34.3281 123.703 34.5391 124.344 34.5391C124.932 34.5391 125.43 34.3281 125.836 33.9062C126.247 33.4792 126.453 32.9583 126.453 32.3438Z" fill="white"/>
<path d="M95.0859 3.38281V4.92188C94.013 4.39583 93.026 4.13281 92.125 4.13281C90.9688 4.13281 89.9948 4.50781 89.2031 5.25781C88.4115 6.0026 88.0156 6.91927 88.0156 8.00781C88.0156 9.11719 88.4193 10.0443 89.2266 10.7891C90.0391 11.5286 91.0547 11.8984 92.2734 11.8984C93.1589 11.8984 94.0964 11.6198 95.0859 11.0625V12.6172C94.1849 13.0964 93.2083 13.3359 92.1562 13.3359C90.6146 13.3359 89.2969 12.8151 88.2031 11.7734C87.1094 10.7266 86.5625 9.46615 86.5625 7.99219C86.5625 6.54427 87.099 5.30469 88.1719 4.27344C89.25 3.24219 90.5469 2.72656 92.0625 2.72656C93.0365 2.72656 94.0443 2.94531 95.0859 3.38281ZM96.2969 7.96094C96.2969 6.52344 96.8385 5.29167 97.9219 4.26562C99.0052 3.23958 100.307 2.72656 101.828 2.72656C103.312 2.72656 104.591 3.24479 105.664 4.28125C106.737 5.3125 107.273 6.53906 107.273 7.96094C107.273 9.46615 106.742 10.7396 105.68 11.7812C104.622 12.8177 103.323 13.3359 101.781 13.3359C100.26 13.3359 98.9661 12.8125 97.8984 11.7656C96.8307 10.7188 96.2969 9.45052 96.2969 7.96094ZM105.828 8.02344C105.828 6.92448 105.432 6 104.641 5.25C103.849 4.49479 102.875 4.11719 101.719 4.11719C100.62 4.11719 99.6771 4.5 98.8906 5.26562C98.1094 6.03125 97.7188 6.95052 97.7188 8.02344C97.7188 9.11198 98.1198 10.0339 98.9219 10.7891C99.7292 11.5391 100.716 11.9141 101.883 11.9141C102.956 11.9141 103.88 11.5312 104.656 10.7656C105.438 9.99479 105.828 9.08073 105.828 8.02344ZM112.438 2.66406L117.141 13H115.719L114.555 10.4531H110.328L109.195 13H107.781L112.438 2.66406ZM112.438 5.78125L110.836 9.32031H114.039L112.438 5.78125ZM116.992 3.04688H123.078V4.40625H120.703V13H119.359V4.40625H116.992V3.04688Z" fill="white"/>
</svg>
