<svg width="119" height="68" viewBox="0 0 119 68" fill="none" xmlns="http://www.w3.org/2000/svg">
<line x1="115.688" y1="3.35131" x2="63.3558" y2="56.3513" stroke="white"/>
<circle cx="115.5" cy="3.5" r="3.5" fill="white"/>
<rect x="0.5" y="42.5" width="63" height="25" stroke="white"/>
<path d="M12.1797 48.5156H12.8828V49.7109C14.1328 49.8984 15.0339 50.3854 15.5859 51.1719L14.4766 52.0469C14.0651 51.4948 13.5339 51.1953 12.8828 51.1484V53.9062C14.1016 54.4219 14.8984 54.987 15.2734 55.6016C15.6536 56.2161 15.8438 56.7969 15.8438 57.3438C15.8438 58.0938 15.5833 58.7552 15.0625 59.3281C14.5469 59.8958 13.8203 60.2214 12.8828 60.3047V61.8203H12.1797V60.3047C11.362 60.1589 10.7161 59.8672 10.2422 59.4297C9.77344 58.987 9.3724 58.3724 9.03906 57.5859L10.4453 57.2188C10.6797 57.7292 10.9219 58.099 11.1719 58.3281C11.4219 58.5573 11.7578 58.7135 12.1797 58.7969V55.1719C10.4922 54.5208 9.64844 53.5495 9.64844 52.2578C9.64844 51.6432 9.8724 51.1016 10.3203 50.6328C10.7734 50.1589 11.3932 49.8516 12.1797 49.7109V48.5156ZM12.1797 53.5859V51.1875C11.8203 51.2604 11.5417 51.3958 11.3438 51.5938C11.151 51.7865 11.0547 52.013 11.0547 52.2734C11.0547 52.8307 11.4297 53.2682 12.1797 53.5859ZM12.8828 55.4844V58.8672C13.3672 58.8047 13.7396 58.638 14 58.3672C14.2656 58.0911 14.3984 57.7448 14.3984 57.3281C14.3984 56.5625 13.8932 55.9479 12.8828 55.4844ZM19.9766 50.0312H24.4609V51.375H21.0234L20.4922 53.2812C20.888 53.2396 21.1172 53.2188 21.1797 53.2188C22.0547 53.2188 22.8177 53.5677 23.4688 54.2656C24.1198 54.9635 24.4453 55.7812 24.4453 56.7188C24.4453 57.724 24.0729 58.5755 23.3281 59.2734C22.5885 59.9714 21.6849 60.3203 20.6172 60.3203C19.2578 60.3203 18.1589 59.7292 17.3203 58.5469L18.5391 57.7734C19.138 58.5234 19.849 58.8984 20.6719 58.8984C21.349 58.8984 21.9089 58.6875 22.3516 58.2656C22.7995 57.8385 23.0234 57.3021 23.0234 56.6562C23.0234 56.0312 22.7917 55.5052 22.3281 55.0781C21.8698 54.6458 21.3047 54.4297 20.6328 54.4297C20.2318 54.4297 19.8828 54.5026 19.5859 54.6484C19.2891 54.7891 18.9609 55.0156 18.6016 55.3281L19.9766 50.0312ZM29.5 60.5156L28.4375 59.7734L30.6328 56.5938C30.3255 56.6354 30.0911 56.6562 29.9297 56.6562C28.9453 56.6562 28.1198 56.3255 27.4531 55.6641C26.7865 54.9974 26.4531 54.1771 26.4531 53.2031C26.4531 52.2604 26.8151 51.4375 27.5391 50.7344C28.2682 50.0312 29.1172 49.6797 30.0859 49.6797C31.0443 49.6797 31.8828 50.0391 32.6016 50.7578C33.3255 51.4714 33.6875 52.3021 33.6875 53.25C33.6875 54.0156 33.4427 54.7552 32.9531 55.4688L29.5 60.5156ZM32.2812 53.3438C32.2812 52.7292 32.0651 52.2031 31.6328 51.7656C31.2005 51.3229 30.6849 51.1016 30.0859 51.1016C29.4505 51.1016 28.9193 51.3203 28.4922 51.7578C28.0651 52.1901 27.8516 52.7292 27.8516 53.375C27.8516 53.9688 28.0781 54.4792 28.5312 54.9062C28.9844 55.3281 29.5312 55.5391 30.1719 55.5391C30.7604 55.5391 31.2578 55.3281 31.6641 54.9062C32.0755 54.4792 32.2812 53.9583 32.2812 53.3438ZM35.1562 59.0859C35.1562 58.7995 35.2578 58.5521 35.4609 58.3438C35.6693 58.1354 35.9193 58.0312 36.2109 58.0312C36.4974 58.0312 36.7448 58.1354 36.9531 58.3438C37.1615 58.5521 37.2656 58.7995 37.2656 59.0859C37.2656 59.3776 37.1615 59.6276 36.9531 59.8359C36.75 60.0391 36.5026 60.1406 36.2109 60.1406C35.9193 60.1406 35.6693 60.0391 35.4609 59.8359C35.2578 59.6328 35.1562 59.3828 35.1562 59.0859ZM41.8438 60.5156L40.7812 59.7734L42.9766 56.5938C42.6693 56.6354 42.4349 56.6562 42.2734 56.6562C41.2891 56.6562 40.4635 56.3255 39.7969 55.6641C39.1302 54.9974 38.7969 54.1771 38.7969 53.2031C38.7969 52.2604 39.1589 51.4375 39.8828 50.7344C40.612 50.0312 41.4609 49.6797 42.4297 49.6797C43.388 49.6797 44.2266 50.0391 44.9453 50.7578C45.6693 51.4714 46.0312 52.3021 46.0312 53.25C46.0312 54.0156 45.7865 54.7552 45.2969 55.4688L41.8438 60.5156ZM44.625 53.3438C44.625 52.7292 44.4089 52.2031 43.9766 51.7656C43.5443 51.3229 43.0286 51.1016 42.4297 51.1016C41.7943 51.1016 41.263 51.3203 40.8359 51.7578C40.4089 52.1901 40.1953 52.7292 40.1953 53.375C40.1953 53.9688 40.4219 54.4792 40.875 54.9062C41.3281 55.3281 41.875 55.5391 42.5156 55.5391C43.1042 55.5391 43.6016 55.3281 44.0078 54.9062C44.4193 54.4792 44.625 53.9583 44.625 53.3438ZM50.6719 60.5156L49.6094 59.7734L51.8047 56.5938C51.4974 56.6354 51.263 56.6562 51.1016 56.6562C50.1172 56.6562 49.2917 56.3255 48.625 55.6641C47.9583 54.9974 47.625 54.1771 47.625 53.2031C47.625 52.2604 47.987 51.4375 48.7109 50.7344C49.4401 50.0312 50.2891 49.6797 51.2578 49.6797C52.2161 49.6797 53.0547 50.0391 53.7734 50.7578C54.4974 51.4714 54.8594 52.3021 54.8594 53.25C54.8594 54.0156 54.6146 54.7552 54.125 55.4688L50.6719 60.5156ZM53.4531 53.3438C53.4531 52.7292 53.237 52.2031 52.8047 51.7656C52.3724 51.3229 51.8568 51.1016 51.2578 51.1016C50.6224 51.1016 50.0911 51.3203 49.6641 51.7578C49.237 52.1901 49.0234 52.7292 49.0234 53.375C49.0234 53.9688 49.25 54.4792 49.7031 54.9062C50.1562 55.3281 50.7031 55.5391 51.3438 55.5391C51.9323 55.5391 52.4297 55.3281 52.8359 54.9062C53.2474 54.4792 53.4531 53.9583 53.4531 53.3438Z" fill="white"/>
<path d="M12.3594 24.0469H14.3594C15.4896 24.0469 16.401 24.3125 17.0938 24.8438C17.7865 25.375 18.1328 26.0651 18.1328 26.9141C18.1328 27.7682 17.7656 28.4844 17.0312 29.0625C16.3021 29.6406 15.1927 29.9219 13.7031 29.9062V34H12.3594V24.0469ZM13.7031 25.2344V28.7188C14.724 28.7083 15.4792 28.5651 15.9688 28.2891C16.4635 28.0078 16.7109 27.5599 16.7109 26.9453C16.7109 26.4818 16.5234 26.0807 16.1484 25.7422C15.7786 25.4036 14.9635 25.2344 13.7031 25.2344ZM22.4688 23.6641L27.1719 34H25.75L24.5859 31.4531H20.3594L19.2266 34H17.8125L22.4688 23.6641ZM22.4688 26.7812L20.8672 30.3203H24.0703L22.4688 26.7812ZM28.3516 23.6484L35.7109 31.2188V24.0469H37.0703V34.4609L29.7109 26.9297V34H28.3516V23.6484ZM38.4922 24.0469H44.5781V25.4062H42.2031V34H40.8594V25.4062H38.4922V24.0469ZM52.1953 25.1484L51.0938 26.0312C50.8021 25.7292 50.5365 25.5052 50.2969 25.3594C50.0625 25.2083 49.7214 25.1328 49.2734 25.1328C48.7839 25.1328 48.3854 25.2448 48.0781 25.4688C47.776 25.6875 47.625 25.9714 47.625 26.3203C47.625 26.6224 47.7578 26.8906 48.0234 27.125C48.2891 27.3542 48.7422 27.6068 49.3828 27.8828C50.0234 28.1536 50.5208 28.4089 50.875 28.6484C51.2344 28.8828 51.5286 29.1432 51.7578 29.4297C51.987 29.7161 52.1562 30.0182 52.2656 30.3359C52.3802 30.6536 52.4375 30.9896 52.4375 31.3438C52.4375 32.1719 52.1354 32.8776 51.5312 33.4609C50.9323 34.0443 50.2057 34.3359 49.3516 34.3359C48.5182 34.3359 47.7812 34.1094 47.1406 33.6562C46.5052 33.1979 46.0156 32.513 45.6719 31.6016L47.0312 31.2188C47.526 32.3385 48.2839 32.8984 49.3047 32.8984C49.7995 32.8984 50.2109 32.75 50.5391 32.4531C50.8672 32.1562 51.0312 31.7812 51.0312 31.3281C51.0312 31.0573 50.9453 30.7865 50.7734 30.5156C50.6016 30.2396 50.388 30.013 50.1328 29.8359C49.8776 29.6589 49.4688 29.4583 48.9062 29.2344C48.349 29.0052 47.9193 28.7969 47.6172 28.6094C47.3203 28.4167 47.0625 28.1901 46.8438 27.9297C46.625 27.6641 46.4635 27.401 46.3594 27.1406C46.2604 26.8802 46.2109 26.6016 46.2109 26.3047C46.2109 25.5911 46.4974 24.9844 47.0703 24.4844C47.6432 23.9792 48.3385 23.7266 49.1562 23.7266C49.6979 23.7266 50.2474 23.8438 50.8047 24.0781C51.362 24.3125 51.8255 24.6693 52.1953 25.1484Z" fill="white"/>
</svg>
