<svg width="103" height="63" viewBox="0 0 103 63" fill="none" xmlns="http://www.w3.org/2000/svg">
<line x1="39.2661" y1="36.4233" x2="4.26609" y2="58.4233" stroke="white"/>
<circle cx="3.5" cy="59.5" r="3.5" fill="white"/>
<rect x="39.5" y="21.5" width="63" height="25" stroke="white"/>
<path d="M51.1797 27.5156H51.8828V28.7109C53.1328 28.8984 54.0339 29.3854 54.5859 30.1719L53.4766 31.0469C53.0651 30.4948 52.5339 30.1953 51.8828 30.1484V32.9062C53.1016 33.4219 53.8984 33.987 54.2734 34.6016C54.6536 35.2161 54.8438 35.7969 54.8438 36.3438C54.8438 37.0938 54.5833 37.7552 54.0625 38.3281C53.5469 38.8958 52.8203 39.2214 51.8828 39.3047V40.8203H51.1797V39.3047C50.362 39.1589 49.7161 38.8672 49.2422 38.4297C48.7734 37.987 48.3724 37.3724 48.0391 36.5859L49.4453 36.2188C49.6797 36.7292 49.9219 37.099 50.1719 37.3281C50.4219 37.5573 50.7578 37.7135 51.1797 37.7969V34.1719C49.4922 33.5208 48.6484 32.5495 48.6484 31.2578C48.6484 30.6432 48.8724 30.1016 49.3203 29.6328C49.7734 29.1589 50.3932 28.8516 51.1797 28.7109V27.5156ZM51.1797 32.5859V30.1875C50.8203 30.2604 50.5417 30.3958 50.3438 30.5938C50.151 30.7865 50.0547 31.013 50.0547 31.2734C50.0547 31.8307 50.4297 32.2682 51.1797 32.5859ZM51.8828 34.4844V37.8672C52.3672 37.8047 52.7396 37.638 53 37.3672C53.2656 37.0911 53.3984 36.7448 53.3984 36.3281C53.3984 35.5625 52.8932 34.9479 51.8828 34.4844ZM62.8203 28.7422V35.8828H63.7812V37.0469H62.8203V39H61.6016V37.0469H56.0234L62.8203 28.7422ZM61.5703 31.9141L58.4062 35.8828H61.6016V31.9141H61.5703ZM68.5 39.5156L67.4375 38.7734L69.6328 35.5938C69.3255 35.6354 69.0911 35.6562 68.9297 35.6562C67.9453 35.6562 67.1198 35.3255 66.4531 34.6641C65.7865 33.9974 65.4531 33.1771 65.4531 32.2031C65.4531 31.2604 65.8151 30.4375 66.5391 29.7344C67.2682 29.0312 68.1172 28.6797 69.0859 28.6797C70.0443 28.6797 70.8828 29.0391 71.6016 29.7578C72.3255 30.4714 72.6875 31.3021 72.6875 32.25C72.6875 33.0156 72.4427 33.7552 71.9531 34.4688L68.5 39.5156ZM71.2812 32.3438C71.2812 31.7292 71.0651 31.2031 70.6328 30.7656C70.2005 30.3229 69.6849 30.1016 69.0859 30.1016C68.4505 30.1016 67.9193 30.3203 67.4922 30.7578C67.0651 31.1901 66.8516 31.7292 66.8516 32.375C66.8516 32.9688 67.0781 33.4792 67.5312 33.9062C67.9844 34.3281 68.5312 34.5391 69.1719 34.5391C69.7604 34.5391 70.2578 34.3281 70.6641 33.9062C71.0755 33.4792 71.2812 32.9583 71.2812 32.3438ZM74.1562 38.0859C74.1562 37.7995 74.2578 37.5521 74.4609 37.3438C74.6693 37.1354 74.9193 37.0312 75.2109 37.0312C75.4974 37.0312 75.7448 37.1354 75.9531 37.3438C76.1615 37.5521 76.2656 37.7995 76.2656 38.0859C76.2656 38.3776 76.1615 38.6276 75.9531 38.8359C75.75 39.0391 75.5026 39.1406 75.2109 39.1406C74.9193 39.1406 74.6693 39.0391 74.4609 38.8359C74.2578 38.6328 74.1562 38.3828 74.1562 38.0859ZM80.8438 39.5156L79.7812 38.7734L81.9766 35.5938C81.6693 35.6354 81.4349 35.6562 81.2734 35.6562C80.2891 35.6562 79.4635 35.3255 78.7969 34.6641C78.1302 33.9974 77.7969 33.1771 77.7969 32.2031C77.7969 31.2604 78.1589 30.4375 78.8828 29.7344C79.612 29.0312 80.4609 28.6797 81.4297 28.6797C82.388 28.6797 83.2266 29.0391 83.9453 29.7578C84.6693 30.4714 85.0312 31.3021 85.0312 32.25C85.0312 33.0156 84.7865 33.7552 84.2969 34.4688L80.8438 39.5156ZM83.625 32.3438C83.625 31.7292 83.4089 31.2031 82.9766 30.7656C82.5443 30.3229 82.0286 30.1016 81.4297 30.1016C80.7943 30.1016 80.263 30.3203 79.8359 30.7578C79.4089 31.1901 79.1953 31.7292 79.1953 32.375C79.1953 32.9688 79.4219 33.4792 79.875 33.9062C80.3281 34.3281 80.875 34.5391 81.5156 34.5391C82.1042 34.5391 82.6016 34.3281 83.0078 33.9062C83.4193 33.4792 83.625 32.9583 83.625 32.3438ZM89.6719 39.5156L88.6094 38.7734L90.8047 35.5938C90.4974 35.6354 90.263 35.6562 90.1016 35.6562C89.1172 35.6562 88.2917 35.3255 87.625 34.6641C86.9583 33.9974 86.625 33.1771 86.625 32.2031C86.625 31.2604 86.987 30.4375 87.7109 29.7344C88.4401 29.0312 89.2891 28.6797 90.2578 28.6797C91.2161 28.6797 92.0547 29.0391 92.7734 29.7578C93.4974 30.4714 93.8594 31.3021 93.8594 32.25C93.8594 33.0156 93.6146 33.7552 93.125 34.4688L89.6719 39.5156ZM92.4531 32.3438C92.4531 31.7292 92.237 31.2031 91.8047 30.7656C91.3724 30.3229 90.8568 30.1016 90.2578 30.1016C89.6224 30.1016 89.0911 30.3203 88.6641 30.7578C88.237 31.1901 88.0234 31.7292 88.0234 32.375C88.0234 32.9688 88.25 33.4792 88.7031 33.9062C89.1562 34.3281 89.7031 34.5391 90.3438 34.5391C90.9323 34.5391 91.4297 34.3281 91.8359 33.9062C92.2474 33.4792 92.4531 32.9583 92.4531 32.3438Z" fill="white"/>
<path d="M47.1172 4.14844L46.0156 5.03125C45.724 4.72917 45.4583 4.50521 45.2188 4.35938C44.9844 4.20833 44.6432 4.13281 44.1953 4.13281C43.7057 4.13281 43.3073 4.24479 43 4.46875C42.6979 4.6875 42.5469 4.97135 42.5469 5.32031C42.5469 5.6224 42.6797 5.89062 42.9453 6.125C43.2109 6.35417 43.6641 6.60677 44.3047 6.88281C44.9453 7.15365 45.4427 7.40885 45.7969 7.64844C46.1562 7.88281 46.4505 8.14323 46.6797 8.42969C46.9089 8.71615 47.0781 9.01823 47.1875 9.33594C47.3021 9.65365 47.3594 9.98958 47.3594 10.3438C47.3594 11.1719 47.0573 11.8776 46.4531 12.4609C45.8542 13.0443 45.1276 13.3359 44.2734 13.3359C43.4401 13.3359 42.7031 13.1094 42.0625 12.6562C41.4271 12.1979 40.9375 11.513 40.5938 10.6016L41.9531 10.2188C42.4479 11.3385 43.2057 11.8984 44.2266 11.8984C44.7214 11.8984 45.1328 11.75 45.4609 11.4531C45.7891 11.1562 45.9531 10.7812 45.9531 10.3281C45.9531 10.0573 45.8672 9.78646 45.6953 9.51562C45.5234 9.23958 45.3099 9.01302 45.0547 8.83594C44.7995 8.65885 44.3906 8.45833 43.8281 8.23438C43.2708 8.00521 42.8411 7.79688 42.5391 7.60938C42.2422 7.41667 41.9844 7.1901 41.7656 6.92969C41.5469 6.66406 41.3854 6.40104 41.2812 6.14062C41.1823 5.88021 41.1328 5.60156 41.1328 5.30469C41.1328 4.59115 41.4193 3.98438 41.9922 3.48438C42.5651 2.97917 43.2604 2.72656 44.0781 2.72656C44.6198 2.72656 45.1693 2.84375 45.7266 3.07812C46.2839 3.3125 46.7474 3.66927 47.1172 4.14844ZM48.9922 3.0625H50.3516V9.17969C50.3516 10.0859 50.5677 10.7865 51 11.2812C51.4375 11.776 52.0547 12.0234 52.8516 12.0234C53.6432 12.0234 54.2578 11.7969 54.6953 11.3438C55.138 10.8854 55.3594 10.2422 55.3594 9.41406V3.0625H56.7188V9.32031C56.7188 10.5391 56.3698 11.513 55.6719 12.2422C54.9792 12.9714 54.0547 13.3359 52.8984 13.3359C51.7161 13.3359 50.7682 12.9661 50.0547 12.2266C49.3464 11.487 48.9922 10.3958 48.9922 8.95312V3.0625ZM58.6953 3.04688H60.0391V13H58.6953V3.04688ZM61.6172 3.04688H67.7031V4.40625H65.3281V13H63.9844V4.40625H61.6172V3.04688ZM76.8047 3.38281V4.92188C75.7318 4.39583 74.7448 4.13281 73.8438 4.13281C72.6875 4.13281 71.7135 4.50781 70.9219 5.25781C70.1302 6.0026 69.7344 6.91927 69.7344 8.00781C69.7344 9.11719 70.138 10.0443 70.9453 10.7891C71.7578 11.5286 72.7734 11.8984 73.9922 11.8984C74.8776 11.8984 75.8151 11.6198 76.8047 11.0625V12.6172C75.9036 13.0964 74.9271 13.3359 73.875 13.3359C72.3333 13.3359 71.0156 12.8151 69.9219 11.7734C68.8281 10.7266 68.2812 9.46615 68.2812 7.99219C68.2812 6.54427 68.8177 5.30469 69.8906 4.27344C70.9688 3.24219 72.2656 2.72656 73.7812 2.72656C74.7552 2.72656 75.763 2.94531 76.8047 3.38281ZM82.1406 2.66406L86.8438 13H85.4219L84.2578 10.4531H80.0312L78.8984 13H77.4844L82.1406 2.66406ZM82.1406 5.78125L80.5391 9.32031H83.7422L82.1406 5.78125ZM94.1797 4.14844L93.0781 5.03125C92.7865 4.72917 92.5208 4.50521 92.2812 4.35938C92.0469 4.20833 91.7057 4.13281 91.2578 4.13281C90.7682 4.13281 90.3698 4.24479 90.0625 4.46875C89.7604 4.6875 89.6094 4.97135 89.6094 5.32031C89.6094 5.6224 89.7422 5.89062 90.0078 6.125C90.2734 6.35417 90.7266 6.60677 91.3672 6.88281C92.0078 7.15365 92.5052 7.40885 92.8594 7.64844C93.2188 7.88281 93.513 8.14323 93.7422 8.42969C93.9714 8.71615 94.1406 9.01823 94.25 9.33594C94.3646 9.65365 94.4219 9.98958 94.4219 10.3438C94.4219 11.1719 94.1198 11.8776 93.5156 12.4609C92.9167 13.0443 92.1901 13.3359 91.3359 13.3359C90.5026 13.3359 89.7656 13.1094 89.125 12.6562C88.4896 12.1979 88 11.513 87.6562 10.6016L89.0156 10.2188C89.5104 11.3385 90.2682 11.8984 91.2891 11.8984C91.7839 11.8984 92.1953 11.75 92.5234 11.4531C92.8516 11.1562 93.0156 10.7812 93.0156 10.3281C93.0156 10.0573 92.9297 9.78646 92.7578 9.51562C92.5859 9.23958 92.3724 9.01302 92.1172 8.83594C91.862 8.65885 91.4531 8.45833 90.8906 8.23438C90.3333 8.00521 89.9036 7.79688 89.6016 7.60938C89.3047 7.41667 89.0469 7.1901 88.8281 6.92969C88.6094 6.66406 88.4479 6.40104 88.3438 6.14062C88.2448 5.88021 88.1953 5.60156 88.1953 5.30469C88.1953 4.59115 88.4818 3.98438 89.0547 3.48438C89.6276 2.97917 90.3229 2.72656 91.1406 2.72656C91.6823 2.72656 92.2318 2.84375 92.7891 3.07812C93.3464 3.3125 93.8099 3.66927 94.1797 4.14844ZM95.9922 3.04688H101.508V4.40625H97.3359V6.89062H101.508V8.23438H97.3359V11.6562H101.508V13H95.9922V3.04688Z" fill="white"/>
</svg>
