<svg width="602" height="96" viewBox="0 0 602 96" fill="none" xmlns="http://www.w3.org/2000/svg">
<g filter="url(#filter0_d)">
<path d="M71.2 51.16C71.2 63.7267 68.7733 72.87 63.92 78.59C59.1533 84.31 52.22 87.17 43.12 87.17C32.8067 87.17 24.0967 84.05 16.99 77.81C8.49667 70.3567 4.25 59.6533 4.25 45.7C4.25 32.0933 8.54 20.9567 17.12 12.29C24.4867 4.83666 32.3733 1.10999 40.78 1.10999C44.8533 1.10999 48.4067 1.84666 51.44 3.32C55.34 5.22666 58.8933 8.34666 62.1 12.68L68.73 0.459993H69.25V38.16L68.08 37.51C68.08 26.33 65.0033 17.36 58.85 10.6C53.7367 4.96666 48.3633 2.14999 42.73 2.14999C35.19 2.14999 29.7733 5.66 26.48 12.68C23.1867 19.6133 21.54 30.1 21.54 44.14C21.54 57.92 23.3167 68.3633 26.87 75.47C30.4233 82.49 35.84 86 43.12 86C51.3533 86 57.68 83.5733 62.1 78.72C67.3867 73 70.03 63.8133 70.03 51.16H71.2ZM143.334 84.31C153.82 84.31 161.837 81.1467 167.384 74.82C172.93 68.4067 175.704 58.7433 175.704 45.83H177.264V86H92.2438V84.57C96.0571 84.57 99.3071 84.44 101.994 84.18C104.68 83.92 106.5 83.6167 107.454 83.27C108.494 82.8367 109.144 82.36 109.404 81.84C109.75 81.2333 109.924 79.7167 109.924 77.29V10.73C109.924 8.21666 109.75 6.65666 109.404 6.05C109.23 5.70333 108.624 5.35666 107.584 5.01C106.63 4.66333 104.68 4.31666 101.734 3.96999C98.8738 3.62333 95.7104 3.44999 92.2438 3.44999V2.14999H145.674V3.44999C140.82 3.44999 137.007 3.57999 134.234 3.84C131.547 4.1 129.64 4.44667 128.514 4.88C127.387 5.31333 126.737 5.70333 126.564 6.05C126.13 6.83 125.914 8.39 125.914 10.73V77.16C125.914 79.6733 126.087 81.2767 126.434 81.97C126.607 82.3167 127.127 82.6633 127.994 83.01C130.94 83.8767 136.054 84.31 143.334 84.31ZM277.069 44.01C277.069 56.75 272.779 67.3233 264.199 75.73C256.399 83.3567 247.603 87.17 237.809 87.17C227.843 87.17 219.046 83.53 211.419 76.25C202.839 68.0167 198.549 57.27 198.549 44.01C198.549 31.27 202.839 20.74 211.419 12.42C219.219 4.87999 228.016 1.10999 237.809 1.10999C247.776 1.10999 256.573 4.70666 264.199 11.9C272.779 20.0467 277.069 30.75 277.069 44.01ZM259.909 44.01C259.909 30.3167 258.046 19.9167 254.319 12.81C250.679 5.70333 245.176 2.14999 237.809 2.14999C230.529 2.14999 225.026 5.70333 221.299 12.81C217.659 19.9167 215.839 30.3167 215.839 44.01C215.839 57.53 217.659 67.93 221.299 75.21C225.026 82.4033 230.529 86 237.809 86C245.003 86 250.463 82.4033 254.189 75.21C258.003 67.93 259.909 57.53 259.909 44.01ZM374.802 2.14999V39.2H372.982C370.988 25.0733 367.825 15.3667 363.492 10.08C359.938 5.65999 354.695 3.44999 347.762 3.44999C346.028 3.44999 345.075 3.53666 344.902 3.71C344.555 3.96999 344.382 5.09666 344.382 7.08999V77.29C344.382 79.8033 344.555 81.4067 344.902 82.1C345.075 82.4467 345.682 82.8367 346.722 83.27C347.762 83.6167 349.755 83.92 352.702 84.18C355.648 84.44 359.635 84.57 364.662 84.57V86H308.112V84.57C313.052 84.57 316.995 84.44 319.942 84.18C322.888 83.92 324.882 83.6167 325.922 83.27C326.962 82.8367 327.612 82.36 327.872 81.84C328.218 81.2333 328.392 79.7167 328.392 77.29V7.22C328.392 4.96666 328.132 3.75333 327.612 3.58C327.352 3.49333 326.442 3.44999 324.882 3.44999C318.122 3.44999 312.965 5.61666 309.412 9.95C305.078 15.3233 301.828 24.9867 299.662 38.94H297.842V2.14999H374.802ZM465.458 77.29V43.75H428.408V77.29C428.408 79.8033 428.581 81.4067 428.928 82.1C429.101 82.4467 429.664 82.8367 430.618 83.27C431.658 83.6167 433.521 83.92 436.208 84.18C438.894 84.44 442.058 84.57 445.698 84.57V86H394.738V84.57C398.464 84.57 401.671 84.44 404.358 84.18C407.131 83.92 408.994 83.6167 409.948 83.27C410.988 82.8367 411.638 82.36 411.898 81.84C412.244 81.2333 412.418 79.7167 412.418 77.29V10.73C412.418 8.21666 412.244 6.65666 411.898 6.05C411.724 5.70333 411.118 5.35666 410.078 5.01C409.124 4.66333 407.174 4.31666 404.228 3.96999C401.368 3.62333 398.204 3.44999 394.738 3.44999V2.14999H445.828V3.44999C438.461 3.44999 433.391 3.96999 430.618 5.01C429.751 5.35666 429.231 5.70333 429.058 6.05C428.624 6.83 428.408 8.39 428.408 10.73V41.54H465.458V10.73C465.458 8.30333 465.241 6.74333 464.808 6.05C464.634 5.70333 464.071 5.35666 463.118 5.01C462.164 4.66333 460.214 4.31666 457.268 3.96999C454.321 3.62333 451.201 3.44999 447.908 3.44999V2.14999H498.998V3.44999C495.098 3.44999 491.891 3.57999 489.378 3.84C486.864 4.1 484.914 4.49 483.528 5.01L482.358 5.53C481.751 6.13666 481.448 7.86999 481.448 10.73V77.29C481.448 79.8033 481.621 81.4067 481.968 82.1C482.141 82.4467 482.661 82.7933 483.528 83.14C486.041 84.0933 491.198 84.57 498.998 84.57V86H448.038V84.57C455.664 84.57 460.734 84.0933 463.248 83.14C464.201 82.7933 464.764 82.4467 464.938 82.1C465.284 81.4933 465.458 79.89 465.458 77.29ZM597.209 44.01C597.209 56.75 592.919 67.3233 584.339 75.73C576.539 83.3567 567.743 87.17 557.949 87.17C547.983 87.17 539.186 83.53 531.559 76.25C522.979 68.0167 518.689 57.27 518.689 44.01C518.689 31.27 522.979 20.74 531.559 12.42C539.359 4.87999 548.156 1.10999 557.949 1.10999C567.916 1.10999 576.713 4.70666 584.339 11.9C592.919 20.0467 597.209 30.75 597.209 44.01ZM580.049 44.01C580.049 30.3167 578.186 19.9167 574.459 12.81C570.819 5.70333 565.316 2.14999 557.949 2.14999C550.669 2.14999 545.166 5.70333 541.439 12.81C537.799 19.9167 535.979 30.3167 535.979 44.01C535.979 57.53 537.799 67.93 541.439 75.21C545.166 82.4033 550.669 86 557.949 86C565.143 86 570.603 82.4033 574.329 75.21C578.143 67.93 580.049 57.53 580.049 44.01Z" fill="white"/>
</g>
<defs>
<filter id="filter0_d" x="0.25" y="0.459991" width="600.959" height="94.71" filterUnits="userSpaceOnUse" color-interpolation-filters="sRGB">
<feFlood flood-opacity="0" result="BackgroundImageFix"/>
<feColorMatrix in="SourceAlpha" type="matrix" values="0 0 0 0 0 0 0 0 0 0 0 0 0 0 0 0 0 0 127 0"/>
<feOffset dy="4"/>
<feGaussianBlur stdDeviation="2"/>
<feColorMatrix type="matrix" values="0 0 0 0 0 0 0 0 0 0 0 0 0 0 0 0 0 0 0.25 0"/>
<feBlend mode="normal" in2="BackgroundImageFix" result="effect1_dropShadow"/>
<feBlend mode="normal" in="SourceGraphic" in2="effect1_dropShadow" result="shape"/>
</filter>
</defs>
</svg>
